<?xml version="1.0" encoding="UTF-8" standalone="no"?>
<svg
   xmlns:dc="http://purl.org/dc/elements/1.1/"
   xmlns:cc="http://creativecommons.org/ns#"
   xmlns:rdf="http://www.w3.org/1999/02/22-rdf-syntax-ns#"
   xmlns:svg="http://www.w3.org/2000/svg"
   xmlns="http://www.w3.org/2000/svg"
   id="svg6186"
   version="1.1"
   viewBox="0 0 26.458303 6.8936066"
   height="6.8936062mm"
   width="26.458303mm">
  <defs
     id="defs6180" />
  <metadata
     id="metadata6183">
    <rdf:RDF>
      <cc:Work
         rdf:about="">
        <dc:format>image/svg+xml</dc:format>
        <dc:type
           rdf:resource="http://purl.org/dc/dcmitype/StillImage" />
        <dc:title></dc:title>
      </cc:Work>
    </rdf:RDF>
  </metadata>
  <g
     transform="translate(-195.80278,-482.181)"
     id="layer1">
    <g
       id="g7579"
       transform="translate(-3427.8451,-1187.9848)">
      <path
         style="fill:#ffffff;stroke-width:0.06978678"
         d="m 3628.4922,1670.1658 c -2.6754,0 -4.8442,1.423 -4.8442,3.1685 v 0.1855 c 0,1.8519 1.8957,3.3518 4.8442,3.3518 2.9668,0 4.845,-1.4994 4.845,-3.3514 v -0.1859 0 c 0,-1.7456 -2.1689,-3.1685 -4.8445,-3.1685 z m 0,0.1872 a 4.6579888,2.979826 0 0 1 4.658,2.9798 4.6579888,2.979826 0 0 1 -4.658,2.9799 4.6579888,2.979826 0 0 1 -4.658,-2.9799 4.6579888,2.979826 0 0 1 4.658,-2.9798 z"
         id="path5645" />
      <g
         id="g5677"
         transform="matrix(0.06978678,0,0,0.06978678,3623.6371,1670.0924)"
         style="fill:#ffffff">
        <path
           style="fill:#ffffff"
           d="m 375.526,17.525 c -2.505,-3.14 -6.309,-4.708 -11.413,-4.708 -5.099,0 -8.903,1.568 -11.407,4.708 -2.508,3.138 -3.762,6.847 -3.762,11.126 0,4.355 1.254,8.078 3.762,11.177 2.504,3.088 6.309,4.638 11.407,4.638 5.104,0 8.908,-1.55 11.413,-4.638 2.508,-3.099 3.759,-6.821 3.759,-11.177 0,-4.279 -1.251,-7.988 -3.759,-11.126 z m -6.208,18.009 c -1.217,1.614 -2.955,2.421 -5.229,2.421 -2.269,0 -4.017,-0.807 -5.242,-2.421 -1.227,-1.612 -1.837,-3.908 -1.837,-6.883 0,-2.971 0.61,-5.261 1.837,-6.865 1.226,-1.604 2.974,-2.407 5.242,-2.407 2.274,0 4.013,0.803 5.229,2.407 1.214,1.604 1.824,3.895 1.824,6.865 10e-4,2.975 -0.61,5.271 -1.824,6.883 z"
           id="path5661" />
        <path
           style="fill:#ffffff"
           d="m 311.491,14.9 c -2.54,-1.288 -5.449,-1.938 -8.722,-1.938 -5.03,0 -8.581,1.313 -10.647,3.933 -1.3,1.679 -2.029,3.817 -2.199,6.422 h 7.517 c 0.185,-1.149 0.554,-2.06 1.108,-2.732 0.775,-0.91 2.093,-1.365 3.956,-1.365 1.665,0 2.924,0.229 3.785,0.698 0.855,0.463 1.287,1.307 1.287,2.524 0,1.004 -0.558,1.738 -1.68,2.215 -0.625,0.273 -1.661,0.501 -3.114,0.683 l -2.664,0.328 c -3.026,0.381 -5.324,1.021 -6.88,1.915 -2.847,1.64 -4.268,4.287 -4.268,7.949 0,2.82 0.88,5.004 2.652,6.543 1.763,1.539 4.01,2.185 6.72,2.311 16.997,0.759 16.805,-8.957 16.961,-10.978 V 22.224 c 10e-4,-3.586 -1.272,-6.03 -3.812,-7.324 z m -3.947,16.969 c -0.052,2.604 -0.799,4.398 -2.231,5.382 -1.434,0.984 -3,1.478 -4.698,1.478 -1.076,0 -1.986,-0.299 -2.736,-0.89 -0.748,-0.592 -1.12,-1.554 -1.12,-2.884 0,-1.492 0.61,-2.593 1.836,-3.305 0.729,-0.417 1.919,-0.776 3.581,-1.062 l 1.775,-0.329 c 0.883,-0.168 1.578,-0.347 2.086,-0.539 0.514,-0.187 1.01,-0.434 1.508,-0.747 v 2.896 z"
           id="path5663" />
        <path
           style="fill:#ffffff"
           d="m 272.735,19.623 c 1.943,0 3.369,0.6 4.292,1.799 0.632,0.888 1.027,1.889 1.181,2.998 h 8.384 c -0.46,-4.229 -1.94,-7.183 -4.438,-8.855 -2.507,-1.666 -5.718,-2.505 -9.644,-2.505 -4.618,0 -8.245,1.419 -10.864,4.25 -2.626,2.835 -3.939,6.797 -3.939,11.89 0,4.51 1.188,8.186 3.563,11.019 2.376,2.831 6.083,4.249 11.119,4.249 5.043,0 8.85,-1.698 11.414,-5.095 1.609,-2.104 2.511,-4.339 2.7,-6.701 h -8.355 c -0.17,1.562 -0.657,2.835 -1.467,3.815 -0.806,0.977 -2.164,1.47 -4.086,1.47 -2.706,0 -4.548,-1.233 -5.527,-3.707 -0.535,-1.319 -0.807,-3.066 -0.807,-5.24 0,-2.28 0.271,-4.108 0.807,-5.49 1.017,-2.596 2.909,-3.897 5.667,-3.897 z"
           id="path5665" />
        <path
           style="fill:#ffffff"
           d="m 255.459,13.059 c -17.222,0 -16.203,15.249 -16.203,15.249 v 15.489 h 7.815 V 29.269 c 0,-2.38 0.302,-4.143 0.896,-5.289 1.073,-2.031 3.167,-3.051 6.293,-3.051 0.235,0 0.545,0.013 0.927,0.03 0.38,0.019 0.813,0.053 1.31,0.11 v -7.952 c -0.347,-0.023 -0.572,-0.033 -0.669,-0.043 -0.1,-0.008 -0.224,-0.015 -0.369,-0.015 z"
           id="path5667" />
        <path
           style="fill:#ffffff"
           d="m 226.751,35.704 c -0.328,0.468 -0.681,0.869 -1.07,1.182 -1.104,0.909 -2.603,1.186 -4.368,1.186 -1.671,0 -2.977,-0.253 -4.16,-0.999 -1.95,-1.198 -3.047,-3.227 -3.164,-6.204 h 21.624 c 0.03,-2.563 -0.053,-4.525 -0.26,-5.892 -0.359,-2.325 -1.149,-4.375 -2.363,-6.139 -1.349,-2 -3.064,-3.464 -5.132,-4.394 -2.069,-0.923 -4.395,-1.387 -6.978,-1.387 -4.354,0 -7.89,1.372 -10.617,4.114 -2.726,2.748 -4.095,6.688 -4.095,11.83 0,5.49 1.512,9.452 4.534,11.887 3.019,2.435 6.509,3.654 10.457,3.654 4.785,0 8.51,-1.443 11.168,-4.332 1.435,-1.52 2.333,-3.023 2.712,-4.506 z M 216.245,21.152 c 1.101,-1.129 2.644,-1.695 4.635,-1.695 1.833,0 3.366,0.531 4.606,1.601 1.233,1.065 1.925,2.632 2.064,4.688 h -13.372 c 0.28,-1.933 0.972,-3.462 2.067,-4.594 z"
           id="path5669" />
        <g
           id="g5673"
           style="fill:#ffffff">
          <path
             style="fill:#ffffff"
             d="m 203.03,43.794 h -7.139 V 25.818 c 0,-1.643 -0.542,-5.549 -5.251,-5.549 -3.14,0 -5.411,2.265 -5.411,5.549 v 17.976 h -7.146 V 25.818 c 0,-1.643 -0.487,-5.549 -5.193,-5.549 -3.194,0 -5.414,2.265 -5.414,5.549 v 17.976 h -7.143 V 25.989 c 0,-7.422 4.923,-13.034 12.557,-13.034 3.789,0 6.871,1.591 8.876,4.14 2.108,-2.549 5.246,-4.14 8.874,-4.14 7.793,0 12.39,5.384 12.39,13.034 z"
             id="path5671" />
        </g>
        <path
           style="fill:#ffffff"
           d="m 346.62,3.672 c 0,0 -7.872,-0.841 -7.872,5.483 l -0.006,8.372 c -0.871,-1.398 -2.005,-2.493 -3.403,-3.281 -1.395,-0.789 -2.992,-1.187 -4.795,-1.187 -3.904,0 -7.016,1.454 -9.352,4.358 -2.336,2.907 -3.498,7.096 -3.498,12.16 0,4.395 1.184,7.998 3.554,10.804 2.369,2.802 7.016,4.032 11.142,4.032 14.391,0 14.225,-12.341 14.225,-12.341 z m -9.374,31.927 c -1.141,1.636 -2.817,2.452 -5.01,2.452 -2.201,0 -3.838,-0.824 -4.916,-2.466 -1.079,-1.646 -1.618,-4.04 -1.618,-6.78 0,-2.543 0.527,-4.672 1.591,-6.388 1.06,-1.714 2.724,-2.575 4.995,-2.575 1.49,0 2.796,0.473 3.925,1.416 1.833,1.563 2.75,4.365 2.75,7.994 0,2.597 -0.573,4.712 -1.717,6.347 z"
           id="path5675" />
      </g>
      <g
         id="g5689"
         transform="matrix(0.06978678,0,0,0.06978678,3623.6371,1670.0924)"
         style="fill:#ffffff;fill-opacity:1">
        <g
           id="g5687"
           style="fill:#ffffff;fill-opacity:1">
          <path
             style="fill:#ffffff;fill-opacity:1"
             d="m 217.402,93.397 c 0,1.058 -0.385,1.966 -1.154,2.72 -0.763,0.757 -1.683,1.135 -2.756,1.135 h -3.903 V 70.095 c 0,-5.281 1.78,-8.589 4.709,-10.824 1.937,-1.478 4.821,-2.888 10.225,-2.888 3.648,0 7.923,1.416 10.23,4.23 2.59,3.165 3.67,6.691 3.67,11.298 0,4.765 -1.148,8.608 -3.444,11.563 -2.297,2.875 -5.248,4.307 -8.849,4.307 -1.914,0 -3.598,-0.341 -5.052,-1.017 -1.538,-0.758 -2.757,-1.928 -3.676,-3.517 z m 13.097,-21.146 c 0,-2.947 -0.573,-5.212 -1.727,-6.802 -1.147,-1.581 -2.794,-2.382 -4.939,-2.382 -2.065,0 -3.675,0.801 -4.829,2.382 -1.068,1.438 -1.602,3.711 -1.602,6.802 0,2.881 0.571,5.025 1.723,6.463 1.146,1.59 2.795,2.382 4.939,2.382 1.988,0 3.561,-0.792 4.708,-2.382 1.154,-1.587 1.727,-3.735 1.727,-6.463"
             id="path5679" />
          <path
             style="fill:#ffffff;fill-opacity:1"
             d="m 290.206,85.277 v -1.919 c -1.353,2.118 -3.181,3.431 -5.474,3.964 -2.297,0.524 -4.571,0.337 -6.823,-0.571 -2.26,-0.902 -4.199,-2.584 -5.817,-5.035 -1.614,-2.462 -2.422,-5.689 -2.422,-9.692 0,-4.676 1.072,-8.475 3.213,-11.381 2.146,-2.905 5.59,-4.231 10.328,-4.361 4.669,-0.123 7.384,0.934 10.042,2.946 2.906,2.206 4.625,5.591 4.625,10.872 v 15.978 c 0.012,5.084 -3.533,14.506 -14.667,13.707 -6.898,-0.5 -10.728,-3.33 -12.863,-9.742 h 8.236 c 0.602,1.054 1.521,1.866 2.769,2.428 1.234,0.574 2.483,0.721 3.716,0.456 1.24,-0.264 2.37,-1.003 3.393,-2.206 1.009,-1.21 1.591,-3.025 1.744,-5.444 M 277.341,72.255 c 0,5.209 1.507,8.096 4.516,8.667 3.005,0.557 5.227,-0.141 6.656,-2.101 0.678,-0.825 1.164,-2.133 1.466,-3.903 0.299,-1.773 0.322,-3.53 0.058,-5.266 -0.259,-1.741 -0.884,-3.289 -1.863,-4.648 -0.975,-1.356 -2.406,-2.039 -4.287,-2.039 -2.559,0 -4.284,0.948 -5.188,2.828 -0.911,1.892 -1.358,4.043 -1.358,6.462"
             id="path5681" />
          <path
             style="fill:#ffffff;fill-opacity:1"
             d="m 262.985,58.437 c -2.543,-1.285 -5.451,-1.937 -8.721,-1.937 -5.034,0 -8.581,1.313 -10.649,3.932 -1.297,1.677 -2.03,3.816 -2.198,6.423 h 7.521 c 0.184,-1.15 0.551,-2.061 1.106,-2.732 0.775,-0.91 2.094,-1.366 3.954,-1.366 1.669,0 2.926,0.229 3.784,0.697 0.855,0.465 1.288,1.307 1.288,2.527 0,1.002 -0.559,1.739 -1.68,2.214 -0.623,0.272 -1.659,0.5 -3.113,0.683 l -2.664,0.325 c -3.025,0.383 -5.325,1.024 -6.878,1.916 -2.85,1.639 -4.27,4.287 -4.27,7.947 0,2.821 0.88,5.005 2.652,6.543 1.763,1.538 4.009,2.187 6.72,2.312 16.992,0.76 16.802,-8.958 16.957,-10.978 V 65.759 c 0.001,-3.587 -1.268,-6.026 -3.809,-7.322 m -3.95,16.968 c -0.049,2.607 -0.797,4.397 -2.229,5.383 -1.432,0.982 -2.998,1.475 -4.697,1.475 -1.076,0 -1.986,-0.298 -2.734,-0.888 -0.751,-0.591 -1.126,-1.555 -1.126,-2.885 0,-1.49 0.614,-2.593 1.84,-3.305 0.73,-0.417 1.918,-0.775 3.58,-1.06 l 1.774,-0.33 c 0.887,-0.168 1.582,-0.345 2.083,-0.538 0.517,-0.187 1.013,-0.435 1.509,-0.748 z"
             id="path5683" />
          <path
             style="fill:#ffffff;fill-opacity:1"
             d="m 327.44,60.9 c -2.509,-3.143 -6.313,-4.709 -11.418,-4.709 -5.094,0 -8.899,1.566 -11.405,4.709 -2.508,3.137 -3.761,6.844 -3.761,11.126 0,4.354 1.253,8.075 3.761,11.174 2.506,3.086 6.312,4.636 11.405,4.636 5.104,0 8.909,-1.55 11.418,-4.636 2.504,-3.099 3.753,-6.819 3.753,-11.174 0,-4.282 -1.249,-7.989 -3.753,-11.126 m -6.211,18.004 c -1.214,1.615 -2.955,2.422 -5.226,2.422 -2.271,0 -4.021,-0.807 -5.242,-2.422 -1.23,-1.61 -1.839,-3.905 -1.839,-6.878 0,-2.972 0.608,-5.262 1.839,-6.864 1.222,-1.607 2.972,-2.406 5.242,-2.406 2.27,0 4.012,0.799 5.226,2.406 1.218,1.603 1.824,3.893 1.824,6.864 0,2.973 -0.607,5.268 -1.824,6.878"
             id="path5685" />
        </g>
      </g>
      <g
         id="g6156"
         transform="matrix(0.26376108,0,0,0.26376108,2687.6987,1237.6994)">
        <path
           id="path5645-0-9-1"
           d="m 3566.8397,1639.6144 c -10.1433,0 -18.3663,5.3952 -18.3663,12.0132 v 0.7033 c 0,7.021 7.1871,12.7072 18.3658,12.7072 11.248,0 18.3695,-5.6849 18.3695,-12.7062 v -0.7043 0 c 0,-6.6183 -8.223,-12.0132 -18.3669,-12.0132 z m 0.8057,4.0633 c 1.6253,0 3.2499,0.7294 3.4319,0.8134 1.5235,0.7434 3.0956,1.1219 4.6765,1.1219 1.6433,5e-4 3.3377,-0.4056 5.1197,-1.2242 1.8616,1.5662 3.1009,3.4501 3.4758,5.505 -3.9923,0.8866 -6.9712,2.1759 -7.7179,2.5079 -1.7423,-1.5205 -5.769,-5.0216 -6.8596,-5.84 -0.6228,-0.4685 -1.048,-0.7162 -1.421,-0.8273 -0.1675,-0.051 -0.3996,-0.1078 -0.6983,-0.108 -0.2773,0 -0.5749,0.05 -0.8861,0.1488 -0.7048,0.223 -1.407,0.7811 -2.0867,1.3209 l -0.035,0.028 c -0.6329,0.5027 -1.2869,1.0232 -1.7817,1.1338 -0.2159,0.049 -0.4376,0.074 -0.6591,0.074 -0.5543,-8e-4 -1.0522,-0.1608 -1.239,-0.399 -0.031,-0.039 -0.011,-0.1028 0.061,-0.1948 l 0.01,-0.012 1.5328,-1.6516 c 1.2004,-1.2005 2.3341,-2.3341 4.944,-2.3941 z m -14.596,0.4676 c 2.2402,0.9165 4.9575,1.6251 5.8171,1.68 0.2397,0.016 0.4953,0.043 0.7509,0.043 0.5699,0 1.1393,-0.1595 1.6899,-0.3137 0.3254,-0.092 0.6837,-0.1911 1.0615,-0.263 -0.1008,0.099 -0.2016,0.1991 -0.3024,0.3002 l -1.5576,1.6847 c -0.122,0.1238 -0.3882,0.4537 -0.2128,0.8604 0.07,0.164 0.2112,0.3211 0.4091,0.4547 0.3712,0.2498 1.0358,0.4184 1.6531,0.4191 0.2339,0 0.4551,-0.023 0.6591,-0.069 0.653,-0.1466 1.3377,-0.6919 2.0635,-1.2687 0.5778,-0.459 1.3991,-1.0425 2.0277,-1.2139 0.1757,-0.048 0.3911,-0.078 0.5647,-0.078 0.052,0 0.1002,3e-4 0.1463,0.01 0.4154,0.053 0.8167,0.1939 1.5338,0.7323 1.2782,0.9602 6.9357,5.9088 6.9908,5.9578 0,0 0.3646,0.3141 0.3394,0.8314 -0.014,0.2884 -0.1738,0.5453 -0.4521,0.7225 -0.2413,0.153 -0.4903,0.231 -0.7427,0.231 -0.3781,-8e-4 -0.6382,-0.1777 -0.6551,-0.1897 -0.021,-0.017 -1.9593,-1.7942 -2.6723,-2.3911 -0.1135,-0.094 -0.2236,-0.1793 -0.3352,-0.1793 -0.06,-10e-4 -0.1125,0.025 -0.1485,0.07 -0.1124,0.1382 0.014,0.3296 0.1614,0.4558 l 2.2638,2.2758 c 0,0 0.2818,0.264 0.3127,0.6129 0.018,0.3773 -0.1622,0.6926 -0.5371,0.9384 -0.2669,0.1756 -0.5376,0.2657 -0.8025,0.2657 -0.3473,0 -0.5918,-0.1589 -0.6458,-0.1959 l -0.3246,-0.3204 c -0.5935,-0.584 -1.2068,-1.1874 -1.6553,-1.5617 -0.1092,-0.091 -0.2262,-0.1752 -0.3373,-0.1752 -0.055,0 -0.1045,0.02 -0.1426,0.061 -0.051,0.057 -0.087,0.1593 0.04,0.3287 0.053,0.07 0.1148,0.1271 0.1148,0.1271 l 1.652,1.8557 c 0.014,0.017 0.3406,0.4048 0.037,0.7917 l -0.058,0.074 c -0.049,0.054 -0.1035,0.1048 -0.1535,0.1478 -0.282,0.2314 -0.6583,0.2568 -0.8078,0.2568 -0.08,0 -0.1561,-0.01 -0.2233,-0.019 -0.1629,-0.029 -0.2725,-0.075 -0.3254,-0.1369 l -0.02,-0.021 c -0.09,-0.093 -0.9226,-0.9436 -1.6118,-1.5188 -0.091,-0.076 -0.2038,-0.1716 -0.321,-0.1716 -0.058,0 -0.1093,0.023 -0.1492,0.067 -0.1365,0.1492 0.068,0.3728 0.155,0.4548 l 1.4092,1.5539 c 0,0.014 -0.019,0.046 -0.053,0.095 -0.05,0.07 -0.2218,0.2408 -0.7329,0.3049 -0.061,0.01 -0.1252,0.011 -0.1871,0.011 -0.5273,0 -1.089,-0.2561 -1.3787,-0.4098 0.132,-0.2786 0.2,-0.5851 0.2,-0.893 5e-4,-1.1599 -0.9414,-2.1029 -2.1006,-2.1037 -0.025,0 -0.051,8e-4 -0.076,0 0.038,-0.5294 -0.037,-1.5322 -1.066,-1.9735 -0.296,-0.1283 -0.5918,-0.1933 -0.8789,-0.1933 -0.2249,0 -0.4405,0.039 -0.644,0.1163 -0.2133,-0.4143 -0.5675,-0.7165 -1.0292,-0.8739 -0.2554,-0.088 -0.5091,-0.1328 -0.7546,-0.1328 -0.4281,0 -0.8226,0.1259 -1.1745,0.3762 -0.3371,-0.4194 -0.8464,-0.6676 -1.383,-0.6676 -0.4691,0 -0.9205,0.1881 -1.2552,0.5193 -0.4384,-0.336 -2.1783,-1.4409 -6.8352,-2.4985 -0.2223,-0.05 -0.725,-0.1949 -1.0427,-0.2879 0.4357,-2.0907 1.7632,-3.9995 3.733,-5.5661 z m 5.4006,8.4941 c 0.5586,0 1.0343,0.4202 1.1055,0.9782 l 0.039,0.3013 0.1654,-0.2547 c 0.019,-0.03 0.4715,-0.715 1.3044,-0.7142 0.1585,0 0.3223,0.027 0.4868,0.077 0.6641,0.2027 0.7761,0.8041 0.7932,1.0547 0.012,0.1435 0.117,0.1535 0.1368,0.1535 0.057,0 0.099,-0.036 0.1289,-0.068 0.1254,-0.1307 0.3985,-0.3478 0.8252,-0.3478 0.1956,7e-4 0.4035,0.047 0.6181,0.139 1.0549,0.4527 0.581,1.7931 0.571,1.8071 -0.091,0.2222 -0.094,0.3202 -0.01,0.3773 l 0.041,0.02 h 0.031 c 0.048,0 0.1077,-0.021 0.2048,-0.054 0.1439,-0.05 0.3603,-0.1246 0.5627,-0.1241 0.7943,0.01 1.4399,0.6552 1.4396,1.4403 -2e-4,0.7925 -0.6466,1.4376 -1.4406,1.4376 l 5e-4,5e-4 c -0.7763,-8e-4 -1.4081,-0.6037 -1.4362,-1.3725 0,-0.066 -0.01,-0.2414 -0.1571,-0.2414 -0.061,0 -0.1141,0.037 -0.1752,0.092 -0.1706,0.1582 -0.3879,0.3194 -0.7054,0.3194 -0.1441,0 -0.3003,-0.034 -0.4651,-0.1013 -0.8199,-0.332 -0.8308,-0.8947 -0.7977,-1.1208 0.01,-0.061 0.012,-0.1237 -0.029,-0.1727 l -0.05,-0.045 h -0.051 c -0.042,0 -0.084,0.017 -0.1429,0.058 -0.237,0.1665 -0.4648,0.2475 -0.6958,0.2475 -0.1275,0 -0.258,-0.026 -0.3887,-0.076 -1.0795,-0.42 -0.9946,-1.4387 -0.9416,-1.7456 0.01,-0.062 -0.01,-0.1101 -0.047,-0.1421 l -0.076,-0.063 -0.072,0.068 c -0.2106,0.2029 -0.4857,0.3142 -0.7752,0.3142 -0.6183,-9e-4 -1.1213,-0.5031 -1.1208,-1.1214 3e-4,-0.6186 0.5038,-1.1207 1.1224,-1.1198 z"
           style="fill:#ffffff;fill-opacity:0.58823529;stroke-width:0.26458332" />
        <path
           id="path5645-6-6"
           d="m 3566.8394,1639.6144 c -10.1434,0 -18.3658,5.3947 -18.3658,12.0127 v 0.7033 c 0,7.021 7.1871,12.7078 18.3658,12.7078 11.2479,0 18.3689,-5.6849 18.3689,-12.7062 v -0.7049 0 c 0,-6.6183 -8.223,-12.0127 -18.3668,-12.0127 z m 0,0.7095 a 17.65988,11.297444 0 0 1 17.6599,11.2975 17.65988,11.297444 0 0 1 -17.6599,11.2975 17.65988,11.297444 0 0 1 -17.6599,-11.2975 17.65988,11.297444 0 0 1 17.6599,-11.2975 z"
           style="fill:#ffffff;stroke-width:0.26458332" />
        <path
           style="fill:#ffffff;stroke-width:0.26458332"
           d="m 3576.6176,1652.4081 c -1.7423,-1.5205 -5.7693,-5.0215 -6.8599,-5.8399 -0.6228,-0.4685 -1.048,-0.7162 -1.4211,-0.8273 -0.1674,-0.051 -0.3995,-0.1082 -0.6982,-0.1085 -0.2773,0 -0.5752,0.05 -0.8863,0.149 -0.7049,0.223 -1.4068,0.781 -2.0863,1.3208 l -0.035,0.028 c -0.6329,0.5027 -1.2864,1.0231 -1.7812,1.1337 -0.2159,0.049 -0.4381,0.074 -0.6596,0.074 -0.5543,-8e-4 -1.0522,-0.1606 -1.2388,-0.3988 -0.031,-0.039 -0.011,-0.1031 0.061,-0.1947 l 0.01,-0.012 1.5327,-1.6517 c 1.2005,-1.2005 2.3345,-2.3339 4.9446,-2.394 0.043,0 0.087,0 0.1302,0 1.6253,0 3.2496,0.7289 3.4316,0.813 1.5235,0.7433 3.0956,1.1206 4.6765,1.1219 1.6476,5e-4 3.347,-0.4072 5.134,-1.2301 -0.1995,-0.168 -0.4072,-0.3312 -0.621,-0.4913 -1.57,0.6805 -3.0657,1.0245 -4.5088,1.0239 -1.4737,0 -2.9466,-0.3553 -4.3762,-1.0527 -0.075,-0.036 -1.8687,-0.8816 -3.7348,-0.8824 -0.049,0 -0.099,8e-4 -0.1474,0 -2.1923,0.051 -3.4274,0.83 -4.2579,1.5121 -0.8078,0.019 -1.5047,0.2145 -2.1246,0.3876 -0.5533,0.1537 -1.0309,0.287 -1.4971,0.2868 -0.192,0 -0.5373,-0.017 -0.5683,-0.018 -0.5358,-0.016 -3.2356,-0.6784 -5.3835,-1.4918 -0.2193,0.1554 -0.4302,0.3154 -0.6355,0.4789 2.2434,0.92 4.9739,1.6315 5.8357,1.687 0.2397,0.016 0.4953,0.043 0.7509,0.043 0.5699,0 1.139,-0.1598 1.6896,-0.314 0.3252,-0.092 0.6839,-0.1908 1.0615,-0.263 -0.1008,0.099 -0.2014,0.1992 -0.3022,0.3003 l -1.5576,1.6846 c -0.1225,0.1238 -0.3886,0.454 -0.2132,0.8606 0.07,0.1641 0.2114,0.321 0.4096,0.4546 0.3709,0.2498 1.0355,0.4188 1.6528,0.4194 0.2339,2e-4 0.4556,-0.023 0.6593,-0.069 0.6528,-0.1466 1.3375,-0.6919 2.063,-1.2687 0.5781,-0.459 1.3991,-1.0422 2.0278,-1.2136 0.1757,-0.048 0.3913,-0.078 0.5649,-0.078 0.052,5e-4 0.1008,0 0.1463,0.01 0.4154,0.053 0.817,0.194 1.534,0.7324 1.2782,0.9602 6.9353,5.9089 6.9906,5.9579 0,0 0.3646,0.3143 0.3394,0.8316 -0.014,0.2884 -0.1735,0.5448 -0.4519,0.722 -0.2413,0.1532 -0.4905,0.2313 -0.7427,0.2313 -0.378,-8e-4 -0.6384,-0.1778 -0.6553,-0.19 -0.021,-0.017 -1.959,-1.7941 -2.6721,-2.391 -0.1137,-0.094 -0.2241,-0.1789 -0.3357,-0.1789 -0.06,-5e-4 -0.1125,0.025 -0.1482,0.07 -0.1124,0.1382 0.014,0.3297 0.1614,0.4559 l 2.2641,2.2757 c 0,0 0.282,0.2641 0.3127,0.613 0.018,0.3773 -0.1625,0.6927 -0.5374,0.9385 -0.2672,0.176 -0.5376,0.2654 -0.8025,0.2654 -0.3474,0 -0.5916,-0.1585 -0.6455,-0.1958 l -0.3249,-0.3201 c -0.5935,-0.584 -1.2065,-1.1878 -1.655,-1.5621 -0.1093,-0.091 -0.2262,-0.1749 -0.3374,-0.1749 -0.055,0 -0.1047,0.02 -0.1426,0.061 -0.051,0.057 -0.087,0.1592 0.04,0.3286 0.053,0.07 0.1146,0.1272 0.1146,0.1272 l 1.652,1.8558 c 0.014,0.017 0.3406,0.4048 0.037,0.7917 l -0.058,0.074 c -0.049,0.054 -0.103,0.1048 -0.1535,0.1482 -0.2818,0.2313 -0.6583,0.2561 -0.8075,0.2561 -0.08,0 -0.1566,-0.01 -0.2233,-0.019 -0.163,-0.029 -0.2725,-0.075 -0.3254,-0.1373 l -0.02,-0.021 c -0.09,-0.093 -0.9231,-0.9433 -1.6124,-1.5185 -0.091,-0.076 -0.204,-0.172 -0.3212,-0.172 -0.058,0 -0.1092,0.023 -0.1489,0.067 -0.1365,0.1492 0.068,0.3725 0.155,0.4546 l 1.4092,1.5539 c 0,0.014 -0.019,0.046 -0.053,0.095 -0.05,0.07 -0.2214,0.2408 -0.7326,0.3048 -0.061,0.01 -0.1246,0.011 -0.187,0.011 -0.5271,0 -1.0893,-0.2559 -1.3791,-0.4096 0.1318,-0.2786 0.2003,-0.5853 0.2003,-0.893 6e-4,-1.1599 -0.9413,-2.1032 -2.1008,-2.104 -0.025,0 -0.051,8e-4 -0.076,0 0.038,-0.5294 -0.037,-1.5322 -1.066,-1.9735 -0.2961,-0.128 -0.5916,-0.1934 -0.8787,-0.1934 -0.2249,0 -0.4408,0.039 -0.6442,0.1164 -0.2133,-0.4143 -0.5673,-0.7162 -1.0293,-0.8736 -0.255,-0.088 -0.509,-0.1331 -0.7546,-0.1331 -0.4281,0 -0.8225,0.1262 -1.1744,0.3765 -0.3371,-0.4194 -0.8464,-0.6676 -1.383,-0.6676 -0.4691,0 -0.9205,0.1879 -1.2552,0.5191 -0.4384,-0.336 -2.1783,-1.4411 -6.835,-2.4987 -0.2257,-0.051 -0.7432,-0.1995 -1.0602,-0.2921 -0.052,0.2522 -0.093,0.507 -0.119,0.7641 0,0 0.8588,0.2056 1.0279,0.2437 4.7569,1.0565 6.3288,2.1553 6.5944,2.363 -0.09,0.2159 -0.1367,0.4493 -0.1373,0.6842 -5e-4,0.9827 0.7988,1.7831 1.7823,1.7838 0.11,0 0.2193,-0.01 0.3267,-0.029 0.1482,0.7231 0.6215,1.2716 1.3446,1.5528 0.2114,0.081 0.4252,0.123 0.635,0.123 0.136,2e-4 0.2723,-0.017 0.4059,-0.051 0.1334,0.3392 0.4342,0.7623 1.106,1.0351 0.2357,0.095 0.4712,0.1445 0.7001,0.1445 0.187,0 0.3698,-0.033 0.5445,-0.097 0.322,0.7842 1.0882,1.3039 1.9425,1.3039 0.5662,8e-4 1.1097,-0.2299 1.506,-0.6379 0.3395,0.1886 1.0557,0.5299 1.7796,0.531 0.094,0 0.1818,-0.01 0.2696,-0.017 0.7189,-0.091 1.0533,-0.372 1.2073,-0.5906 0.028,-0.038 0.053,-0.079 0.074,-0.1206 0.1698,0.049 0.3563,0.089 0.5699,0.089 0.3926,0 0.7694,-0.1338 1.1504,-0.4114 0.3741,-0.2699 0.64,-0.657 0.6781,-0.9866 8e-4,0 0,-0.01 0,-0.014 0.1262,0.026 0.2556,0.039 0.3847,0.039 0.404,0 0.8017,-0.1262 1.1817,-0.3749 0.7328,-0.4805 0.8601,-1.1081 0.8479,-1.5187 0.1281,0.027 0.2591,0.041 0.3895,0.041 0.3797,0 0.752,-0.1143 1.1073,-0.3406 0.4543,-0.2902 0.7276,-0.7347 0.7689,-1.252 0.028,-0.3516 -0.059,-0.7064 -0.2442,-1.0112 1.2279,-0.5289 4.0338,-1.5526 7.3379,-2.2974 -0.02,-0.2564 -0.057,-0.5093 -0.1026,-0.7612 -3.9979,0.8866 -6.9813,2.1778 -7.7285,2.5101 z m -11.1787,6.4617 c -0.7765,-8e-4 -1.4076,-0.6041 -1.4361,-1.3729 0,-0.066 -0.01,-0.2411 -0.1572,-0.2411 -0.061,0 -0.114,0.037 -0.1749,0.092 -0.1706,0.1582 -0.3881,0.3191 -0.7056,0.3191 -0.144,0 -0.3003,-0.034 -0.4652,-0.1011 -0.8199,-0.332 -0.8313,-0.8953 -0.7979,-1.1215 0.01,-0.061 0.012,-0.1233 -0.029,-0.172 l -0.05,-0.045 h -0.051 c -0.042,0 -0.084,0.017 -0.1427,0.058 -0.237,0.1667 -0.4646,0.2476 -0.6958,0.2476 -0.1273,0 -0.258,-0.026 -0.3887,-0.076 -1.0795,-0.4201 -0.9943,-1.4388 -0.9416,-1.7457 0.01,-0.062 -0.01,-0.1103 -0.047,-0.1424 l -0.076,-0.063 -0.072,0.068 c -0.2106,0.2029 -0.4855,0.3141 -0.7749,0.3141 -0.6184,-8e-4 -1.1213,-0.503 -1.1208,-1.1213 5e-4,-0.6186 0.504,-1.1206 1.1224,-1.1198 0.5585,0 1.0342,0.4202 1.1056,0.9782 l 0.039,0.3011 0.1653,-0.2548 c 0.019,-0.03 0.4715,-0.7146 1.3044,-0.7138 0.1585,0 0.322,0.026 0.4866,0.076 0.6641,0.2027 0.7766,0.8046 0.7938,1.0552 0.012,0.1463 0.1158,0.1532 0.1362,0.1532 0.057,0 0.099,-0.036 0.1294,-0.068 0.1254,-0.1307 0.3982,-0.3481 0.8252,-0.3481 0.1953,6e-4 0.4033,0.047 0.6181,0.1391 1.0549,0.4527 0.5765,1.7934 0.5707,1.8074 -0.091,0.2222 -0.094,0.3204 -0.01,0.377 l 0.041,0.02 h 0.031 c 0.048,0 0.1067,-0.021 0.2043,-0.054 0.1437,-0.05 0.3604,-0.1244 0.563,-0.1239 h 6e-4 c 0.7942,0.01 1.4401,0.6551 1.4398,1.4402 -2e-4,0.7926 -0.6466,1.4372 -1.4404,1.4372 z"
           id="path5657-2-3" />
      </g>
    </g>
  </g>
</svg>
